<svg width="1160" height="300" viewBox="0 0 1160 300" fill="none" xmlns="http://www.w3.org/2000/svg"><path fill-rule="evenodd" clip-rule="evenodd" d="M1160 0H0v300h893.11a38.02 38.02 0 0 1-4.28-3.88c-8.52-9.12-13.2-20.82-14.04-35.1-.24-6.48-.36-11.76-.36-15.84s.12-9.48.36-16.2c.84-14.28 5.52-25.98 14.04-35.1 8.64-9.12 21.48-13.68 38.52-13.68 17.04 0 29.82 4.56 38.34 13.68 8.64 9.12 13.38 20.82 14.22 35.1.24 3.36.36 8.76.36 16.2 0 7.32-.12 12.6-.36 15.84-.84 14.28-5.58 25.98-14.22 35.1-1.3 1.4-2.71 2.7-4.22 3.88h50.5a39.1 39.1 0 0 1-9.47-8.38c-4.32-5.52-6.6-11.34-6.84-17.46 0-1.08.36-1.98 1.08-2.7a3.96 3.96 0 0 1 2.88-1.26h22.68a9 9 0 0 1 4.68 1.08c1.2.6 2.58 1.62 4.14 3.06a31.06 31.06 0 0 0 7.38 5.04c2.64 1.08 6.42 1.62 11.34 1.62 6 0 10.8-1.02 14.4-3.06 3.72-2.04 5.58-5.04 5.58-9s-1.86-6.96-5.58-9c-3.6-2.04-8.4-3.06-14.4-3.06h-14.94a4.67 4.67 0 0 1-3.42-1.44 4.67 4.67 0 0 1-1.44-3.42v-15.48c0-1.2.3-2.28.9-3.24.72-.96 1.68-2.04 2.88-3.24l19.08-19.26h-46.98a4.67 4.67 0 0 1-3.42-1.44 4.67 4.67 0 0 1-1.44-3.42v-19.08c0-1.32.48-2.46 1.44-3.42a4.67 4.67 0 0 1 3.42-1.44h86.04c1.32 0 2.46.48 3.42 1.44s1.44 2.1 1.44 3.42v19.08c0 1.8-1.2 3.9-3.6 6.3l-21.78 21.96c9.84 2.4 17.58 6.54 23.22 12.42 5.64 5.88 8.46 13.32 8.46 22.32 0 13.32-4.68 23.46-14.04 30.42l-.87.64H1160V0ZM941.75 214.58c2.88 3.6 4.5 8.7 4.86 15.3.24 3.24.36 8.22.36 14.94 0 6.72-.12 11.82-.36 15.3-.24 6.6-1.86 11.76-4.86 15.48-2.88 3.6-7.68 5.4-14.4 5.4-6.72 0-11.58-1.8-14.58-5.4-2.88-3.72-4.44-8.88-4.68-15.48-.24-6.96-.36-12.06-.36-15.3 0-3.48.12-8.46.36-14.94.36-6.6 1.98-11.7 4.86-15.3 2.88-3.72 7.68-5.58 14.4-5.58 6.72 0 11.52 1.86 14.4 5.58Z" fill="#FFE17F"/></svg>