<svg width="1160" height="300" viewBox="0 0 1160 300" fill="none" xmlns="http://www.w3.org/2000/svg"><path fill-rule="evenodd" clip-rule="evenodd" d="M1160 0H0v300h924.23a38.02 38.02 0 0 1-4.28-3.88c-8.52-9.12-13.2-20.82-14.04-35.1-.24-6.48-.36-11.76-.36-15.84s.12-9.48.36-16.2c.84-14.28 5.52-25.98 14.04-35.1 8.64-9.12 21.48-13.68 38.52-13.68 17.04 0 29.82 4.56 38.34 13.68 8.64 9.12 13.38 20.82 14.22 35.1.24 3.36.36 8.76.36 16.2 0 7.32-.12 12.6-.36 15.84-.84 14.28-5.58 25.98-14.22 35.1-1.31 1.4-2.72 2.7-4.23 3.88h73.25v-75.52l-21.42 16.2a5.01 5.01 0 0 1-3.06 1.08 4.46 4.46 0 0 1-3.78-1.98l-13.32-17.28c-.6-.72-.9-1.68-.9-2.88 0-1.68.66-3 1.98-3.96l38.7-29.7c.24-.24.84-.72 1.8-1.44a21.85 21.85 0 0 1 3.24-1.8 7.92 7.92 0 0 1 3.24-.72h21.96c1.32 0 2.46.48 3.42 1.44s1.44 2.1 1.44 3.42V300H1160V0ZM972.87 214.58c2.88 3.6 4.5 8.7 4.86 15.3.24 3.24.36 8.22.36 14.94 0 6.72-.12 11.82-.36 15.3-.24 6.6-1.86 11.76-4.86 15.48-2.88 3.6-7.68 5.4-14.4 5.4-6.72 0-11.58-1.8-14.58-5.4-2.88-3.72-4.44-8.88-4.68-15.48-.24-6.96-.36-12.06-.36-15.3 0-3.48.12-8.46.36-14.94.36-6.6 1.98-11.7 4.86-15.3 2.88-3.72 7.68-5.58 14.4-5.58 6.72 0 11.52 1.86 14.4 5.58Z" fill="#FFE17F"/></svg>