<svg width="1160" height="300" viewBox="0 0 1160 300" fill="none" xmlns="http://www.w3.org/2000/svg"><path fill-rule="evenodd" clip-rule="evenodd" d="M1160 0H0v300h894.87a38.2 38.2 0 0 1-4.28-3.88c-8.52-9.12-13.2-20.82-14.04-35.1-.24-6.48-.36-11.76-.36-15.84s.12-9.48.36-16.2c.84-14.28 5.52-25.98 14.04-35.1 8.64-9.12 21.48-13.68 38.52-13.68 17.04 0 29.82 4.56 38.34 13.68 8.64 9.12 13.38 20.82 14.22 35.1.24 3.36.36 8.76.36 16.2 0 7.32-.12 12.6-.36 15.84-.84 14.28-5.58 25.98-14.22 35.1-1.3 1.4-2.72 2.7-4.23 3.88h35.1v-12.34c0-4.56 1.74-8.1 5.22-10.62l53.82-38.52c3.84-2.88 6.36-5.52 7.56-7.92a17.2 17.2 0 0 0 1.98-8.1c0-3-1.08-6-3.24-9-2.04-3-6-4.5-11.88-4.5-4.08 0-7.32.84-9.72 2.52-2.28 1.56-3.78 3.06-4.5 4.5a111.1 111.1 0 0 0-2.52 6.3 5.7 5.7 0 0 1-2.7 3.24c-1.2.6-2.7.9-4.5.9h-22.14a4.3 4.3 0 0 1-2.88-1.08 4.3 4.3 0 0 1-1.08-2.88 42.23 42.23 0 0 1 5.94-20.16c3.72-6.48 9.3-11.76 16.74-15.84 7.44-4.2 16.5-6.3 27.18-6.3 10.2 0 18.96 1.98 26.28 5.94 7.32 3.84 12.84 9 16.56 15.48a39.65 39.65 0 0 1 5.76 20.88c0 7.32-1.68 13.98-5.04 19.98-3.24 5.88-8.88 11.76-16.92 17.64l-25.2 19.08h45.18c1.32 0 2.46.48 3.42 1.44s1.44 2.1 1.44 3.42V300H1160V0ZM943.51 214.58c2.88 3.6 4.5 8.7 4.86 15.3.24 3.24.36 8.22.36 14.94 0 6.72-.12 11.82-.36 15.3-.24 6.6-1.86 11.76-4.86 15.48-2.88 3.6-7.68 5.4-14.4 5.4-6.72 0-11.58-1.8-14.58-5.4-2.88-3.72-4.44-8.88-4.68-15.48-.24-6.96-.36-12.06-.36-15.3 0-3.48.12-8.46.36-14.94.36-6.6 1.98-11.7 4.86-15.3 2.88-3.72 7.68-5.58 14.4-5.58 6.72 0 11.52 1.86 14.4 5.58Z" fill="#FFE17F"/></svg>